<?xml version="1.0" standalone="no"?>
<svg xmlns:xlink="http://www.w3.org/1999/xlink" id="wave" style="transform:rotate(0deg); transition: 0.3s" viewBox="0 0 1440 490" version="1.1" xmlns="http://www.w3.org/2000/svg"><defs><linearGradient id="sw-gradient-0" x1="0" x2="0" y1="1" y2="0"><stop stop-color="rgba(120, 255, 214, 1)" offset="0%"/><stop stop-color="rgba(17, 255, 189, 1)" offset="100%"/></linearGradient></defs><path style="transform:translate(0, 0px); opacity:1" fill="url(#sw-gradient-0)" d="M0,245L30,277.7C60,310,120,376,180,351.2C240,327,300,212,360,147C420,82,480,65,540,89.8C600,114,660,180,720,220.5C780,261,840,278,900,302.2C960,327,1020,359,1080,310.3C1140,261,1200,131,1260,89.8C1320,49,1380,98,1440,122.5C1500,147,1560,147,1620,130.7C1680,114,1740,82,1800,106.2C1860,131,1920,212,1980,269.5C2040,327,2100,359,2160,367.5C2220,376,2280,359,2340,326.7C2400,294,2460,245,2520,204.2C2580,163,2640,131,2700,155.2C2760,180,2820,261,2880,302.2C2940,343,3000,343,3060,318.5C3120,294,3180,245,3240,245C3300,245,3360,294,3420,269.5C3480,245,3540,147,3600,106.2C3660,65,3720,82,3780,130.7C3840,180,3900,261,3960,253.2C4020,245,4080,147,4140,130.7C4200,114,4260,180,4290,212.3L4320,245L4320,490L4290,490C4260,490,4200,490,4140,490C4080,490,4020,490,3960,490C3900,490,3840,490,3780,490C3720,490,3660,490,3600,490C3540,490,3480,490,3420,490C3360,490,3300,490,3240,490C3180,490,3120,490,3060,490C3000,490,2940,490,2880,490C2820,490,2760,490,2700,490C2640,490,2580,490,2520,490C2460,490,2400,490,2340,490C2280,490,2220,490,2160,490C2100,490,2040,490,1980,490C1920,490,1860,490,1800,490C1740,490,1680,490,1620,490C1560,490,1500,490,1440,490C1380,490,1320,490,1260,490C1200,490,1140,490,1080,490C1020,490,960,490,900,490C840,490,780,490,720,490C660,490,600,490,540,490C480,490,420,490,360,490C300,490,240,490,180,490C120,490,60,490,30,490L0,490Z"/></svg>